<?xml version="1.0" encoding="utf-8"?>
<!-- Generator: Adobe Illustrator 25.4.1, SVG Export Plug-In . SVG Version: 6.00 Build 0)  -->
<svg version="1.1" id="Layer_1" xmlns="http://www.w3.org/2000/svg" xmlns:xlink="http://www.w3.org/1999/xlink" x="0px" y="0px"
	 viewBox="0 0 117 117" style="enable-background:new 0 0 117 117;" xml:space="preserve">
<style type="text/css">
	.st0{fill:#303030;}
	.st1{fill:url(#SVGID_1_);}
	.st2{fill:url(#SVGID_00000031913512451425955650000014085647284014216592_);}
	.st3{fill:url(#SVGID_00000146458810873346424160000009754895371409035948_);}
	.st4{fill:url(#SVGID_00000087375241635526665900000008256921290580123282_);}
	.st5{fill:url(#SVGID_00000056413310229405166190000006455119548694755206_);}
	.st6{fill:url(#SVGID_00000081610823847456904530000016977204049536199582_);}
	.st7{fill:url(#SVGID_00000106862344295972368380000018301491847766640814_);}
	.st8{fill:url(#SVGID_00000174603776782681921370000003963234303406527674_);}
	.st9{fill:url(#SVGID_00000049197278047401010480000018405504314606953107_);}
	.st10{opacity:0.4;}
</style>
<g>
</g>
<g>
	<g>
		<linearGradient id="SVGID_1_" gradientUnits="userSpaceOnUse" x1="33.7564" y1="85.6421" x2="84.185" y2="17.4701">
			<stop  offset="0" style="stop-color:#FF7700"/>
			<stop  offset="0.7423" style="stop-color:#FF3554"/>
		</linearGradient>
		<path class="st1" d="M88.2,63.7c2,0,3.9,0.4,5.7,1c2.8-3.3,4.3-6.8,4.3-10.5c0-6-4.1-11.8-11.5-16.3c-7.9-4.8-18.5-7.5-29.8-7.5h0
			c-11.3,0-21.9,2.7-29.8,7.5c-7.4,4.5-11.5,10.3-11.5,16.3c0,3.7,1.5,7.2,4.3,10.5c1.8-0.7,3.7-1,5.7-1c4.4,0,8.6,1.7,11.8,4.9
			c2.2,2.2,3.7,4.9,4.4,7.8c4.8,1.1,9.8,1.7,15.1,1.7s10.3-0.6,15.1-1.7c0.7-2.9,2.2-5.6,4.4-7.8C79.6,65.4,83.8,63.7,88.2,63.7z
			 M57,49.8c-5.1,0-9.3-4.2-9.3-9.3h18.5C66.2,45.7,62.1,49.8,57,49.8z"/>
	</g>
	<g>
		
			<linearGradient id="SVGID_00000007425970390157430120000005676213856380522378_" gradientUnits="userSpaceOnUse" x1="-1.098" y1="59.8593" x2="49.3306" y2="-8.3127">
			<stop  offset="0" style="stop-color:#FF7700"/>
			<stop  offset="0.7423" style="stop-color:#FF3554"/>
		</linearGradient>
		<path style="fill:url(#SVGID_00000007425970390157430120000005676213856380522378_);" d="M24.9,33.5c0.9-0.5,1.8-1,2.8-1.5l0,0
			c-2.3-1.8-5.1-2.6-7.8-2.6c-4,0-7.9,1.8-10.4,5.2L8.3,36l7.4,5.5C18,38.6,21.1,35.9,24.9,33.5z"/>
	</g>
	<g>
		
			<linearGradient id="SVGID_00000004523332885531071210000004066196978593912250_" gradientUnits="userSpaceOnUse" x1="4.8921" y1="64.2904" x2="55.3207" y2="-3.8816">
			<stop  offset="0" style="stop-color:#FF7700"/>
			<stop  offset="0.7423" style="stop-color:#FF3554"/>
		</linearGradient>
		<path style="fill:url(#SVGID_00000004523332885531071210000004066196978593912250_);" d="M15.8,67c-2.5-3.2-4-6.6-4.5-10.2
			c-0.1-0.8-0.2-1.7-0.2-2.5c0-4.2,1.4-8.3,4.1-12h-1c-7.2,0-13,5.8-13,13v1.8l9.7,0c-2.5,2.1-4.2,5-4.6,8.3
			c-0.5,3.4,0.4,6.9,2.6,9.6l0.8,1.1c0.7-2.8,2.2-5.4,4.3-7.5C14.6,68,15.2,67.5,15.8,67z"/>
	</g>
	<g>
		
			<linearGradient id="SVGID_00000021114836784491199140000016065309789807225252_" gradientUnits="userSpaceOnUse" x1="49.2795" y1="97.1249" x2="99.7081" y2="28.9529">
			<stop  offset="0" style="stop-color:#FF7700"/>
			<stop  offset="0.7423" style="stop-color:#FF3554"/>
		</linearGradient>
		<path style="fill:url(#SVGID_00000021114836784491199140000016065309789807225252_);" d="M98.3,41.6l7.4-5.5l-1.1-1.5
			c-2.6-3.4-6.5-5.2-10.4-5.2c-2.7,0-5.5,0.8-7.8,2.6l0,0c0.9,0.5,1.9,1,2.8,1.5C92.9,35.9,96,38.6,98.3,41.6z"/>
	</g>
	<g>
		
			<linearGradient id="SVGID_00000013891009983878323600000004419314447419910582_" gradientUnits="userSpaceOnUse" x1="64.9363" y1="108.7067" x2="115.3649" y2="40.5347">
			<stop  offset="0" style="stop-color:#FF7700"/>
			<stop  offset="0.7423" style="stop-color:#FF3554"/>
		</linearGradient>
		<path style="fill:url(#SVGID_00000013891009983878323600000004419314447419910582_);" d="M112.8,55.3c0-7.2-5.8-13-13-13h-1
			c2.7,3.7,4.1,7.7,4.1,12c0,0.9-0.1,1.7-0.2,2.5c-0.5,3.6-2,7.1-4.5,10.2c0.6,0.5,1.2,1,1.8,1.5c2.1,2.1,3.6,4.7,4.3,7.5l0.8-1.1
			c2.1-2.8,3-6.2,2.6-9.6c-0.4-3.3-2.1-6.2-4.6-8.3l9.7,0V55.3z"/>
	</g>
	<g>
		
			<linearGradient id="SVGID_00000096043963969281634320000013576718297786964667_" gradientUnits="userSpaceOnUse" x1="4.5888" y1="64.066" x2="55.0174" y2="-4.106">
			<stop  offset="0" style="stop-color:#FF7700"/>
			<stop  offset="0.7423" style="stop-color:#FF3554"/>
		</linearGradient>
		<path style="fill:url(#SVGID_00000096043963969281634320000013576718297786964667_);" d="M41.3,27.4c7.2,0,13-5.8,13-13
			c0-7.2-5.8-13-13-13c-7.2,0-13,5.8-13,13C28.3,21.6,34.1,27.4,41.3,27.4z M41.3,7.3C41.3,7.3,41.4,7.3,41.3,7.3
			c-0.9,0.9-1.4,2.2-1.4,3.6c0,2.8,2.2,5,5,5c1.4,0,2.7-0.6,3.6-1.5c0,0,0,0,0,0.1c0,3.9-3.2,7.1-7.1,7.1c-3.9,0-7.1-3.2-7.1-7.1
			C34.2,10.5,37.4,7.3,41.3,7.3z"/>
	</g>
	<g>
		
			<linearGradient id="SVGID_00000096762282506788611520000012349623966736648857_" gradientUnits="userSpaceOnUse" x1="24.8396" y1="79.046" x2="75.2682" y2="10.874">
			<stop  offset="0" style="stop-color:#FF7700"/>
			<stop  offset="0.7423" style="stop-color:#FF3554"/>
		</linearGradient>
		<path style="fill:url(#SVGID_00000096762282506788611520000012349623966736648857_);" d="M72.7,27.4c7.2,0,13-5.8,13-13
			c0-7.2-5.8-13-13-13c-7.2,0-13,5.8-13,13C59.6,21.6,65.5,27.4,72.7,27.4z M72.7,7.3C72.7,7.3,72.7,7.3,72.7,7.3
			c-0.9,0.9-1.4,2.2-1.4,3.6c0,2.8,2.2,5,5,5c1.4,0,2.7-0.6,3.6-1.5c0,0,0,0,0,0.1c0,3.9-3.2,7.1-7.1,7.1c-3.9,0-7.1-3.2-7.1-7.1
			C65.5,10.5,68.7,7.3,72.7,7.3z"/>
	</g>
	<g>
		
			<linearGradient id="SVGID_00000109027702086747267790000003298749473041035652_" gradientUnits="userSpaceOnUse" x1="25.7994" y1="79.756" x2="76.228" y2="11.584">
			<stop  offset="0" style="stop-color:#FF7700"/>
			<stop  offset="0.7423" style="stop-color:#FF3554"/>
		</linearGradient>
		<path style="fill:url(#SVGID_00000109027702086747267790000003298749473041035652_);" d="M25.7,67.3c-7.2,0-13,5.8-13,13
			c0,7.2,5.8,13,13,13c1.5,0,3-0.3,4.3-0.7c-0.1-0.1-0.2-0.2-0.4-0.3c-3.8-3.8-5.1-8.6-2.8-10.8c2.2-2.2,7.1-0.9,10.8,2.8
			c0.1,0.1,0.2,0.2,0.3,0.4c0.5-1.3,0.7-2.8,0.7-4.3C38.8,73.1,32.9,67.3,25.7,67.3z"/>
	</g>
	<g>
		
			<linearGradient id="SVGID_00000119104443697510065220000010698928417511639218_" gradientUnits="userSpaceOnUse" x1="66.4442" y1="109.8221" x2="116.8728" y2="41.6501">
			<stop  offset="0" style="stop-color:#FF7700"/>
			<stop  offset="0.7423" style="stop-color:#FF3554"/>
		</linearGradient>
		<path style="fill:url(#SVGID_00000119104443697510065220000010698928417511639218_);" d="M88.3,67.3c-7.2,0-13,5.8-13,13
			c0,1.5,0.3,3,0.7,4.3c0.1-0.1,0.2-0.3,0.3-0.4c3.8-3.8,8.6-5.1,10.8-2.8c2.2,2.2,0.9,7.1-2.8,10.8c-0.1,0.1-0.2,0.2-0.4,0.3
			c1.3,0.5,2.8,0.7,4.3,0.7c7.2,0,13-5.8,13-13C101.3,73.1,95.4,67.3,88.3,67.3z"/>
	</g>
</g>
<g class="st10">
	
	
	

</g>
</svg>
